<svg xmlns="http://www.w3.org/2000/svg" viewBox="0 0 560 150" width="560" height="150" role="img" aria-label="Healthy Aging Knowledge Lab">
  <!-- mark -->
  <g transform="translate(18,29) scale(1.40)">
    <g stroke="#d6dee2" stroke-width="1" stroke-linecap="round" stroke-dasharray="1.4 2.6">
      <path d="M13 15 L40 19"/><path d="M52 48 L33 57"/><path d="M50 12 L56 28"/><path d="M8 30 L12 45"/>
    </g>
    <g stroke="#c4d0d6" stroke-width="1.6" stroke-linecap="round">
      <path d="M33 33 L13 15"/><path d="M33 33 L50 12"/><path d="M33 33 L56 28"/>
      <path d="M33 33 L52 48"/><path d="M33 33 L33 57"/><path d="M33 33 L12 45"/>
      <path d="M33 33 L8 30"/><path d="M33 33 L40 19"/><path d="M33 33 L24 25"/>
    </g>
    <circle cx="13" cy="15" r="4.2" fill="#d1495b"/>
    <circle cx="50" cy="12" r="3.4" fill="#3f7fb0"/>
    <circle cx="56" cy="28" r="2.4" fill="#9aa7ad"/>
    <circle cx="52" cy="48" r="3.9" fill="#e9b949"/>
    <circle cx="33" cy="57" r="2.8" fill="#2f8f6b"/>
    <circle cx="12" cy="45" r="3.6" fill="#4f6db0"/>
    <circle cx="8"  cy="30" r="2.5" fill="#6fb0a2"/>
    <circle cx="40" cy="19" r="2.2" fill="#8e6fc0"/>
    <circle cx="24" cy="25" r="2.0" fill="#45b39d"/>
    <circle cx="33" cy="33" r="9" fill="#16a085"/>
    <circle cx="29.8" cy="29.8" r="3" fill="#ffffff" opacity="0.25"/>
  </g>
  <!-- wordmark -->
  <text x="150" y="78" font-family="-apple-system, Segoe UI, Roboto, system-ui, sans-serif" font-size="46" font-weight="700" fill="#163a33">Healthy Aging</text>
  <text x="152" y="106" font-family="-apple-system, Segoe UI, Roboto, system-ui, sans-serif" font-size="19" font-weight="600" letter-spacing="5.5" fill="#16a085">KNOWLEDGE&#8201;LAB</text>
</svg>
